<svg xmlns="http://www.w3.org/2000/svg" width="512" height="512" viewBox="0 0 512 512" role="img" aria-labelledby="title desc">
  <title id="title">curlpit Terminal Mascot</title>
  <desc id="desc">A playful terminal window mascot with neon accents representing the curlpit tool.</desc>
  <defs>
    <linearGradient id="bgGradient" x1="0%" y1="0%" x2="100%" y2="100%">
      <stop offset="0%" stop-color="#121c34" />
      <stop offset="100%" stop-color="#050913" />
    </linearGradient>
    <linearGradient id="faceGlow" x1="0%" y1="0%" x2="100%" y2="0%">
      <stop offset="0%" stop-color="#39e5ad" />
      <stop offset="100%" stop-color="#18c982" />
    </linearGradient>
    <radialGradient id="eyeGlow" cx="50%" cy="50%" r="65%">
      <stop offset="0%" stop-color="#d5fff2" />
      <stop offset="45%" stop-color="#6ef3b8" />
      <stop offset="100%" stop-color="#0a6140" />
    </radialGradient>
    <filter id="softShadow" x="-15%" y="-15%" width="130%" height="130%">
      <feDropShadow dx="0" dy="12" stdDeviation="18" flood-color="#02060d" flood-opacity="0.65" />
    </filter>
    <path id="spark" d="M2.4 0l1.8 4.6 4.8 1.4-4.8 1.6L2.4 12 0.6 7.6-4.2 6l4.8-1.4z" />
  </defs>
  <g filter="url(#softShadow)">
    <rect x="40" y="56" width="432" height="360" rx="36" fill="url(#bgGradient)" stroke="#1b2a46" stroke-width="12" />
    <rect x="40" y="56" width="432" height="72" rx="32" ry="32" fill="#0f1628" />
    <circle cx="92" cy="92" r="10" fill="#ff5f5f" />
    <circle cx="128" cy="92" r="10" fill="#ffbd4a" />
    <circle cx="164" cy="92" r="10" fill="#3ad97f" />
    <rect x="116" y="164" width="280" height="192" rx="28" fill="#0b1324" stroke="#1b2f4e" stroke-width="8" />
    <path d="M120 204c24-18 58-30 96-30s73 12 96 30" fill="none" stroke="#182441" stroke-width="6" stroke-linecap="round" />
    <circle cx="196" cy="244" r="34" fill="url(#eyeGlow)" stroke="#1a4636" stroke-width="6" />
    <circle cx="316" cy="244" r="34" fill="url(#eyeGlow)" stroke="#1a4636" stroke-width="6" />
    <path d="M176 314c22 28 62 44 92 44s70-16 92-44" fill="none" stroke="url(#faceGlow)" stroke-width="14" stroke-linecap="round" />
    <path d="M158 212c-16-10-24-24-24-42 0-8 3-16 10-22" fill="none" stroke="#18c982" stroke-width="10" stroke-linecap="round" stroke-linejoin="round" />
    <path d="M354 212c16-10 24-24 24-42 0-8-3-16-10-22" fill="none" stroke="#18c982" stroke-width="10" stroke-linecap="round" stroke-linejoin="round" />
    <path d="M152 352h56" stroke="#39e5ad" stroke-width="10" stroke-linecap="round" />
    <path d="M228 352h92" stroke="#39e5ad" stroke-width="10" stroke-linecap="round" stroke-dasharray="24 18" />
    <path d="M120 188h32l-32 32" fill="none" stroke="#39e5ad" stroke-width="12" stroke-linecap="round" stroke-linejoin="round" />
    <path d="M392 188c-6 44-34 94-78 124s-89 32-118 8" fill="none" stroke="#2ce7a3" stroke-width="12" stroke-linecap="round" stroke-linejoin="round" opacity="0.7" />
    <g transform="translate(366 128) scale(1.2)" fill="#39e5ad" opacity="0.8">
      <use href="#spark" />
      <use href="#spark" transform="rotate(45) scale(0.7) translate(6 -2)" />
    </g>
    <g transform="translate(128 136) scale(0.8)" fill="#2ce7a3" opacity="0.6">
      <use href="#spark" />
    </g>
  </g>
  <g transform="translate(256 456) scale(0.9)">
    <path d="M-208-24v-64c0-26 18-44 44-44h24v24h-20c-12 0-20 8-20 20v44c0 12 8 20 20 20h20v24h-24c-26 0-44-18-44-44z" fill="#39e5ad" />
    <path d="M-110-108h24v108h-24z" fill="#39e5ad" />
    <path d="M-54-108h24l44 64v-64h24v108h-24l-44-64v64h-24z" fill="#39e5ad" />
    <path d="M66-108h72c18 0 30 12 30 28 0 12-6 20-16 24 10 4 16 12 16 24 0 16-12 30-30 30H66zM90-84v24h40c6 0 10-4 10-10 0-6-4-10-10-10zm0 48v24h44c6 0 10-4 10-12 0-6-4-12-10-12z" fill="#39e5ad" />
    <path d="M198-108h88c20 0 36 16 36 36 0 14-8 24-18 30 8 6 14 16 14 28 0 20-16 38-36 38h-84zm24 24v28h60c6 0 12-6 12-14 0-8-6-14-12-14zm0 52v30h64c8 0 12-8 12-16s-6-14-12-14z" fill="#39e5ad" />
    <path d="M348-108h24v108h-24z" fill="#39e5ad" />
    <path d="M404-108h24l44 64v-64h24v108h-24l-44-64v64h-24z" fill="#39e5ad" />
  </g>
</svg>
