<?xml version="1.0" encoding="UTF-8" standalone="no"?>
<svg
   version="1.1"
   style="display: block;"
   viewBox="0 0 2048 2048"
   width="1024"
   height="1024"
   preserveAspectRatio="none"
   id="svg17"
   sodipodi:docname="replicate-prediction-x7h0y3rrnhrma0csjhx86ysn9w.svg"
   inkscape:version="1.4.2 (ebf0e940, 2025-05-08)"
   xmlns:inkscape="http://www.inkscape.org/namespaces/inkscape"
   xmlns:sodipodi="http://sodipodi.sourceforge.net/DTD/sodipodi-0.dtd"
   xmlns="http://www.w3.org/2000/svg"
   xmlns:svg="http://www.w3.org/2000/svg">
  <sodipodi:namedview
     id="namedview17"
     pagecolor="#ffffff"
     bordercolor="#000000"
     borderopacity="0.25"
     inkscape:showpageshadow="2"
     inkscape:pageopacity="0.0"
     inkscape:pagecheckerboard="0"
     inkscape:deskcolor="#d1d1d1"
     inkscape:zoom="0.44978012"
     inkscape:cx="515.8076"
     inkscape:cy="495.79782"
     inkscape:window-width="1568"
     inkscape:window-height="1101"
     inkscape:window-x="198"
     inkscape:window-y="40"
     inkscape:window-maximized="0"
     inkscape:current-layer="layer3" />
  <defs
     id="defs2">
    <linearGradient
       id="swatch25"
       inkscape:swatch="solid">
      <stop
         style="stop-color:#7bd5ac;stop-opacity:1;"
         offset="0"
         id="stop25" />
    </linearGradient>
    <linearGradient
       id="Gradient1"
       gradientUnits="userSpaceOnUse"
       x1="1356.42"
       y1="1386.01"
       x2="493.366"
       y2="-258.867">
      <stop
         class="stop0"
         offset="0"
         stop-opacity="1"
         stop-color="rgb(95,149,181)"
         id="stop1" />
      <stop
         class="stop1"
         offset="1"
         stop-opacity="1"
         stop-color="rgb(142,112,224)"
         id="stop2" />
    </linearGradient>
  </defs>
  <g
     inkscape:groupmode="layer"
     id="layer4"
     inkscape:label="Background">
    <path
       fill="url(#Gradient1)"
       d="M 0 0 L 2048 0 L 2048 1021.64 L 2048 2048 L 0 2048 L 0 1508.93 L 0 0 z"
       id="path2"
       style="display:block" />
    <path
       fill="rgb(91,103,157)"
       d="M 1536.98 1012.98 C 1610.46 1077.7 1714.55 1113.52 1812.22 1107.22 C 1879.32 1102.88 1943.03 1082.38 2001.7 1049.83 C 2017.5 1041.06 2032.53 1030.96 2048 1021.64 L 2048 2048 L 0 2048 L 0 1508.93 C 36.3387 1499.96 72.3215 1484.43 105.716 1467.73 C 250.23 1395.43 339.94 1284.66 429.281 1154.04 C 445.737 1129.96 461.87 1105.65 477.677 1081.14 C 488.878 1063.63 499.605 1045.35 511.813 1028.55 C 511.718 1035.03 509.827 1049.43 512.65 1054.76 C 513.785 1107.27 512.787 1160.03 512.79 1212.57 C 512.792 1241.95 511.338 1272.25 513.585 1301.53 C 518.073 1360.49 543.442 1415.92 585.133 1457.86 C 637.059 1510.48 700.236 1534.44 773.491 1534.71 L 1124.8 1534.74 L 1231.72 1534.74 C 1266.96 1534.71 1303.42 1536.25 1338 1528.55 C 1385.08 1518.13 1428.21 1494.48 1462.29 1460.38 C 1495.32 1427.99 1518.73 1387.09 1529.95 1342.21 C 1540.93 1298.25 1536.97 1238.11 1536.97 1191.84 L 1536.98 1012.98 z"
       id="path3"
       style="display:block" />
  </g>
  <g
     inkscape:groupmode="layer"
     id="layer3"
     inkscape:label="Logo">
    <path
       fill="rgb(254,254,254)"
       d="M 512.65 1054.76 C 513.371 1046.25 512.836 1037.28 512.851 1028.72 L 512.869 977.994 L 512.71 819.051 C 512.656 779.705 510.6 740.05 520.639 701.602 C 531.672 659.344 555.734 619.287 586.384 588.389 C 626.279 547.741 678.896 521.987 735.472 515.417 C 756.152 513.071 777.233 513.437 798.026 513.394 L 1138.27 513.397 L 1238.81 513.462 C 1273.3 513.492 1308.28 511.802 1342.09 519.831 C 1388.27 530.797 1431.17 556.329 1464.54 589.798 C 1495.49 621.126 1517.67 660.028 1528.87 702.616 C 1541.24 751.1 1536.98 803.957 1536.98 853.697 L 1536.98 1012.98 L 1536.97 1191.84 C 1536.97 1238.11 1540.93 1298.25 1529.95 1342.21 C 1518.73 1387.09 1495.32 1427.99 1462.29 1460.38 C 1428.21 1494.48 1385.08 1518.13 1338 1528.55 C 1303.42 1536.25 1266.96 1534.71 1231.72 1534.74 L 1124.8 1534.74 L 773.491 1534.71 C 700.236 1534.44 637.059 1510.48 585.133 1457.86 C 543.442 1415.92 518.073 1360.49 513.585 1301.53 C 511.338 1272.25 512.792 1241.95 512.79 1212.57 C 512.787 1160.03 513.785 1107.27 512.65 1054.76 z"
       id="path4"
       style="display:block" />
    <path
       fill="rgb(48,51,64)"
       d="M 978.076 717.522 C 975.4 705.296 973.48 692.977 975.28 680.473 C 978.244 659.875 990.699 642.088 1007.24 629.906 C 1031.66 611.917 1069.34 603.3 1099.25 607.991 C 1105.86 609.027 1118.78 611.559 1122.4 617.719 C 1123.86 620.204 1123.08 623.18 1122.58 625.828 C 1113.08 657.724 1098.57 688.52 1086.59 719.572 C 1119.23 722.033 1182.12 737.959 1203.47 762.397 C 1209.88 769.728 1212.25 776.475 1212.02 786.072 L 1212.02 787.429 C 1211.92 799.507 1208.43 810.955 1199.69 819.649 C 1179.68 839.576 1144.48 841.486 1118.07 840.878 C 1064.68 839.65 996.385 826.742 953.938 867.539 C 934.139 886.568 924.712 914.608 924.431 941.631 C 924.098 973.617 935.986 1002.26 958.48 1025 C 990.224 1057.09 1033.72 1069.66 1077.93 1069.66 C 1130.53 1069.66 1182.82 1060.91 1235.32 1060.94 C 1252.96 1060.43 1281.83 1057.47 1298.17 1060.98 C 1303.88 1062.2 1309.44 1064.86 1313.61 1068.99 C 1318.69 1074.02 1320.89 1080.56 1320.61 1087.63 C 1320.43 1092.4 1320.16 1099.26 1318.61 1103.7 C 1304.13 1177.44 1256.23 1239.5 1194.64 1280.81 C 1128.83 1324.75 1048.29 1340.83 970.652 1325.51 C 901.583 1311.78 843.563 1274.65 799.745 1219.78 C 792.457 1213.76 786.658 1204.55 781.38 1196.78 C 755.612 1159.62 738.279 1117.27 730.595 1072.7 C 716.322 989.945 735.296 904.897 783.393 836.054 C 830.389 769.647 898.749 731.052 978.076 717.522 z"
       id="path5"
       style="display:block" />
    <path
       fill="rgb(105,169,208)"
       d="M 1318.61 1103.7 C 1318.19 1102.03 1318.66 1102.62 1317.34 1101.81 C 1298.64 1132.48 1258.4 1155.09 1225.99 1167.89 C 1154.31 1196.19 1068.34 1194.76 997.905 1163.46 C 937.397 1136.58 885.281 1089.04 861.478 1026.2 C 843.003 977.43 841.609 921.135 863.632 873.198 C 878.727 840.339 904.088 813.506 938.548 801.12 C 961.201 792.978 983.866 792.89 1005.71 803.336 C 983.291 808.19 962.481 812.786 943.15 825.94 C 917.84 843.163 900.147 873.01 894.763 902.858 C 887.206 944.753 899.411 988.271 923.721 1022.68 C 954.107 1065.7 1000.46 1092.1 1052.04 1100.79 C 1104.31 1109.59 1157.96 1099.5 1205.62 1077.18 C 1215.66 1072.48 1226.3 1067.37 1235.32 1060.94 C 1252.96 1060.43 1281.83 1057.47 1298.17 1060.98 C 1303.88 1062.2 1309.44 1064.86 1313.61 1068.99 C 1318.69 1074.02 1320.89 1080.56 1320.61 1087.63 C 1320.43 1092.4 1320.16 1099.26 1318.61 1103.7 z"
       id="path6"
       style="display:block" />
    <path
       fill="rgb(140,131,234)"
       d="M 978.076 717.522 C 975.4 705.296 973.48 692.977 975.28 680.473 C 978.244 659.875 990.699 642.088 1007.24 629.906 C 1031.66 611.917 1069.34 603.3 1099.25 607.991 C 1105.86 609.027 1118.78 611.559 1122.4 617.719 C 1123.86 620.204 1123.08 623.18 1122.58 625.828 C 1113.08 657.724 1098.57 688.52 1086.59 719.572 C 1119.23 722.033 1182.12 737.959 1203.47 762.397 C 1209.88 769.728 1212.25 776.475 1212.02 786.072 C 1201.23 801.119 1185.26 807.056 1167.53 809.966 C 1118.98 817.938 1061.11 802.538 1021.57 773.727 C 1013.87 768.113 1007.23 761.95 1000.86 754.881 C 922.117 766.604 853.08 802.813 804.966 867.474 C 757.468 932.379 737.32 1013.32 748.847 1092.92 C 753.854 1126.34 764.87 1158.57 781.361 1188.06 C 787.193 1198.63 795.035 1208.72 799.745 1219.78 C 792.457 1213.76 786.658 1204.55 781.38 1196.78 C 755.612 1159.62 738.279 1117.27 730.595 1072.7 C 716.322 989.945 735.296 904.897 783.393 836.054 C 830.389 769.647 898.749 731.052 978.076 717.522 z"
       id="path7"
       style="display:block" />
    <path
       fill="rgb(48,51,64)"
       d="M 1086.59 719.572 C 1069.19 713.477 1045.95 705.744 1034.45 690.26 C 1030.85 685.409 1028.76 679.734 1029.8 673.665 C 1031.41 664.325 1039.62 656.795 1047.02 651.519 C 1064.8 638.835 1086.73 634.124 1107.51 628.803 C 1111.96 627.664 1118.03 625.049 1122.58 625.828 C 1113.08 657.724 1098.57 688.52 1086.59 719.572 z"
       id="path8"
       style="display:block" />
  </g>
  <g
     inkscape:groupmode="layer"
     id="layer2"
     inkscape:label="Text"
     style="display:block"
     transform="matrix(0.28320453,0,0,0.31307127,740.93756,943.2895)">
    <path
       fill="#e2e3e4"
       d="m 1168.1719,1499.5149 c 8.7271,-0.808 17.8084,-0.9246 26.5262,-0.058 26.666,2.6321 51.0104,14.7514 67.5508,33.6176 16.6802,18.658 23.1789,42.4136 20.158,65.9693 -2.7039,22.3062 -15.3842,42.6884 -35.1693,56.5153 -15.1418,10.5201 -41.7799,18.9995 -60.819,16.3924 -3.5431,-0.4915 -6.7038,-1.8075 -8.6805,-4.5812 -1.3613,-1.9075 -1.93,-4.448 -2.0792,-6.6886 -0.3543,-5.1976 -0.2051,-35.5001 0.8392,-38.9152 2.3775,-7.7547 18.2932,-7.6048 25.4446,-11.2947 6.7504,-3.4734 9.8738,-8.8292 11.5055,-15.4678 2.0792,-8.4877 0.8485,-17.825 -4.55,-25.1799 -4.522,-6.1555 -11.5055,-10.0204 -19.6079,-11.2115 -9.6874,-1.416 -18.228,0.3749 -26.2371,5.3392 l -1.0163,0.6497 c -5.4731,4.981 -8.1956,10.0537 -9.7341,16.8755 -2.4335,10.7866 -1.0442,22.8976 -1.0349,33.8925 l -0.1212,77.9137 c 0.056,12.6024 1.8554,27.2206 -0.1865,39.5982 -0.5128,3.0902 -1.5757,7.1217 -4.177,9.3956 -6.7038,5.8639 -43.1878,2.9569 -53.7517,2.5904 -3.7201,-2.3822 -7.6548,-5.0892 -8.382,-9.3206 -2.62,-15.1846 -0.7086,-43.6047 -0.7553,-59.9887 l -0.3822,-57.1483 c -0.1119,-16.0676 -1.035,-32.3766 2.1071,-48.2692 2.648,-13.4271 8.3169,-25.8213 17.3702,-36.8245 16.1675,-19.6242 38.5446,-30.1693 65.1826,-33.8009 z"
       id="path9-3"
       style="display:block;fill:#303340;fill-opacity:1;fill-rule:nonzero;stroke-width:0.88126" />
    <path
       fill="#e2e3e4"
       d="m 1458.4959,1445.1902 c 10.6011,-0.2165 46.8706,-3.0236 54.0406,3.3068 2.0886,1.8408 3.1142,4.248 3.599,6.7969 1.9673,10.3368 0.1865,33.8675 0.5967,46.1618 20.0368,-0.01 40.5212,-1.0745 60.5021,-0.2583 8.6431,0.3499 12.5032,1.1412 18.3492,6.8635 0.979,10.5784 2.1631,30.1859 0.3077,40.2146 -1.1282,6.1638 -3.3939,8.2628 -9.0348,11.6779 -23.3467,1.4993 -47.1131,-0.1749 -70.5531,0.683 -0.1491,11.6779 -3.7201,40.023 5.9859,48.3941 10.2189,8.8125 40.5771,4.7228 54.2365,4.7978 5.3145,0.033 10.9647,0.658 14.7595,4.3479 5.3332,5.1643 3.4218,16.6173 3.2727,23.2892 -0.019,7.3549 2.5733,21.3733 -2.7226,27.1373 -5.5197,5.9889 -41.2111,3.5567 -50.4696,3.5484 -26.1719,-0.025 -52.1666,-2.4989 -71.5134,-20.0907 -26.7127,-24.2803 -20.8294,-60.2719 -20.4844,-91.3241 -9.2119,0.1916 -22.5076,1.8575 -30.1438,-3.49 -3.3845,-2.3656 -4.4847,-4.8727 -5.0069,-8.596 -1.1934,-8.471 -2.0792,-38.6153 4.6899,-44.6458 5.0348,-4.4896 23.2162,-2.8654 30.4515,-2.8487 -0.093,-14.1934 -2.3403,-33.2678 0.8764,-46.6949 1.2121,-5.056 3.5244,-6.5303 8.2609,-9.2707 z"
       id="path10-8"
       style="display:block;fill:#303340;fill-opacity:1;fill-rule:nonzero;stroke-width:0.88126" />
    <path
       fill="#e2e3e4"
       d="m 627.61439,1509.1188 c 0.92958,25.0633 -0.31328,50.1599 0.64334,75.2149 0.36269,9.4872 1.365,18.6663 9.83379,25.3715 4.58451,3.6233 10.50604,4.7311 16.50403,4.3729 8.78114,-0.533 16.00428,-3.3317 20.48156,-10.3535 13.09805,-20.5487 -3.81623,-87.5841 9.28182,-99.6702 1.82187,-1.6825 3.93464,-2.3988 6.47444,-2.7986 5.82456,-0.9163 12.11532,0.1665 18.00049,0.2248 7.48887,0.067 14.97586,-0.8829 22.47312,-0.6746 4.72156,0.1332 8.50515,1.3577 11.70135,4.6228 1.79016,1.8325 2.344,3.5484 2.68618,5.9056 1.69879,11.6862 0.73471,24.6302 0.85872,36.4746 0.18927,18.0749 1.66989,36.9911 -0.50721,54.9411 -0.60046,14.8097 -9.72658,30.6024 -20.2438,41.7055 -16.05649,16.9671 -39.00046,26.6376 -63.63855,28.4451 -25.46046,1.9574 -50.73724,-5.2809 -70.18012,-20.099 -19.15758,-14.8014 -28.69954,-35.0669 -30.33586,-57.4065 -1.25592,-17.142 -0.57621,-34.6755 -0.75709,-51.8675 -0.10443,-9.8954 -1.67269,-21.2984 0.0811,-31.0189 0.46619,-2.5904 1.54495,-5.1559 3.60644,-7.0633 6.72898,-6.2471 34.03461,-4.0148 44.40172,-4.1314 2.65262,-0.075 5.74532,-0.3082 8.35877,0.1332 4.83345,0.833 7.55413,4.373 10.27575,7.6715 z"
       id="path11-0"
       style="display:block;fill:#303340;fill-opacity:1;fill-rule:nonzero;stroke-width:0.88126" />
    <path
       fill="#e2e3e4"
       d="m 472.30253,1501.2891 c 15.19497,-0.1333 31.56381,-1.391 46.61146,-0.2582 3.55516,0.2665 7.1243,0.658 9.44406,3.39 6.38959,7.5299 5.45814,36.633 3.41157,46.0619 -1.05731,4.8727 -5.36304,6.9551 -9.69021,9.4956 -18.45083,0.8579 -55.9371,-4.1731 -70.01974,5.4641 -6.00079,4.1064 -9.21377,10.1786 -10.13496,16.7838 -1.10953,7.963 0.0876,16.0009 5.89357,22.3813 14.0845,15.4844 53.68634,7.6297 74.12967,9.5455 0.38134,0.042 0.76268,0.083 1.1431,0.1249 2.11276,1.2911 4.83438,2.6988 6.45205,4.4896 5.12995,5.689 3.52439,32.3849 2.99107,40.3229 -0.36269,5.4141 -1.06477,7.9546 -5.69496,11.6695 -2.67593,0.7997 -5.12902,1.0912 -7.93827,1.2411 -9.99603,0.5081 -20.1515,0.1583 -30.17083,0.1583 -31.53024,0 -58.72958,-2.3406 -83.16256,-22.123 -18.48906,-14.968 -28.81981,-36.0082 -29.82025,-58.1812 -1.06758,-23.6807 7.09819,-45.6454 25.2488,-63.1039 19.60232,-18.8662 43.07122,-26.4377 71.30643,-27.4622 z"
       id="path12-2"
       style="display:block;fill:#303340;fill-opacity:1;fill-rule:nonzero;stroke-width:0.88126" />
    <path
       fill="#e2e3e4"
       d="m 957.30803,1429.4892 c 11.99691,-0.1416 24.13648,-0.5914 36.12686,-0.2665 5.43577,0.1499 12.87611,0.8579 16.51241,4.956 8.2516,9.3123 0.6434,137.5942 3.5897,159.8505 0.662,5.0393 2.0232,10.6033 6.191,14.3016 8.2049,7.3133 19.5053,5.9472 30.0785,5.7473 2.9183,1.8908 5.4078,4.1814 7.9811,6.422 0.4476,8.5377 1.9394,38.9152 -1.24,45.7037 -1.5291,3.2652 -3.9253,4.3147 -7.3192,5.6557 -15.7852,0.4248 -33.0155,0.2999 -48.2692,-3.6066 -18.09748,-4.6229 -34.38613,-15.3679 -43.52344,-30.1943 -5.17656,-8.4044 -8.59279,-18.1832 -9.77785,-27.7121 -1.5636,-12.5691 -3.05354,-165.7477 -0.26013,-173.0443 1.59343,-4.1647 5.72107,-6.0805 9.91025,-7.813 z"
       id="path13-4"
       style="display:block;fill:#303340;fill-opacity:1;fill-rule:nonzero;stroke-width:0.88126" />
    <path
       fill="#e2e3e4"
       d="m 862.0833,1501.2641 c 13.63789,-0.4915 31.64026,-2.3406 44.83807,0.1416 4.56586,0.8579 6.61616,3.2401 9.12892,6.497 0.29929,10.545 3.11134,36.0165 -1.02002,44.7957 -6.89587,14.6599 -42.57706,3.6733 -57.08114,9.9121 -4.18731,1.7991 -7.13549,4.6395 -8.74105,8.546 -4.53602,11.0282 -1.75007,57.5815 -1.56732,72.6411 0.0783,6.4803 1.1347,15.4178 -1.53004,21.515 -1.44705,3.3151 -5.64741,5.0643 -9.10467,6.2304 -10.10512,0.092 -43.00595,2.3739 -50.29342,-1.7742 -4.17799,-2.3822 -5.4656,-8.6209 -5.85907,-12.6191 -1.21022,-12.3192 0.16783,-25.7047 0.37389,-38.1239 0.34311,-20.707 -2.4447,-44.146 3.07964,-64.2367 2.89504,-10.5701 8.62357,-20.3405 16.69237,-28.4867 15.94554,-16.1758 37.45084,-23.6223 61.08384,-25.0383 z"
       id="path14-8"
       style="display:block;fill:#303340;fill-opacity:1;fill-rule:nonzero;stroke-width:0.88126" />
    <path
       fill="#e2e3e4"
       d="m 1327.9536,1501.2807 c 11.9624,0.1416 40.2041,-2.832 49.9848,1.4327 2.3776,1.0412 3.4964,1.8242 4.2516,4.1314 4.1584,12.6191 2.0513,29.9361 2.1165,43.0883 l 0.2238,63.9951 c 0.056,14.9264 1.5198,31.0272 0.047,45.8536 -0.2237,2.3073 -0.7179,4.0648 -2.0232,6.0722 -2.2844,3.5234 -5.3426,4.8894 -9.6315,5.8056 -6.5919,0.01 -13.1745,0.05 -19.7664,0.1416 -8.8856,0.075 -26.3024,1.9908 -32.8664,-4.273 -1.7528,-1.6659 -2.9276,-3.5483 -3.254,-5.8389 -1.212,-8.6377 -0.5874,-18.0749 -0.634,-26.8125 -0.1305,-17.5668 -0.1212,-35.1253 0.01,-52.6921 0.1679,-24.372 -1.5011,-49.5103 0.2891,-73.7573 3.4498,-3.7399 5.8367,-6.0139 11.2538,-7.1467 z"
       id="path15-3"
       style="display:block;fill:#303340;fill-opacity:1;fill-rule:nonzero;stroke-width:0.88126" />
    <path
       fill="#e2e3e4"
       d="m 1346.769,1415.9955 c 20.0741,-2.0824 38.2461,10.7283 40.6424,28.6533 2.3962,17.925 -11.8972,34.2007 -31.9526,36.3914 -20.1394,2.2073 -38.4513,-10.6284 -40.8569,-28.6283 -2.4055,-18 12.0091,-34.3257 32.1671,-36.4164 z"
       id="path16-9"
       style="display:block;fill:#303340;fill-opacity:1;fill-rule:nonzero;stroke-width:0.88126" />
  </g>
</svg>
